<svg xmlns="http://www.w3.org/2000/svg" version="1.1" xmlns:xlink="http://www.w3.org/1999/xlink" xmlns:svgjs="http://svgjs.dev/svgjs" width="100%" height="100%" viewBox="0 0 1000 600"><rect width="1000" height="600" x="0" y="0" fill="#ffe8f5"/><g><rect width="333.3333333333333" height="333.3333333333333" y="220.3641933504641" fill="#8000ff" transform="matrix(0.6308607984701626,0,0,0.6308607984701625,0,55.837405219749826)" x="198.1419677734375"/><path d="M287.4454539010052 462.0308604784789L287.4454539010052 462.0308604784789Q271.55615097127196 462.0308604784789 260.9218229830748 455.8741442747858Q250.28749499487753 449.7174280710927 244.6904802642474 440.20250302902144Q239.09346553361732 430.6875779869503 237.9740625874913 420.6129514718161L237.9740625874913 420.6129514718161L255.44918635756974 420.6129514718161Q256.31983309344554 426.42762788641517 260.1444598260428 432.2423043010142Q263.93799203235875 438.0569807156133 270.87207139308384 441.88160744821056Q277.8372452800902 445.6751396545265 288.34719516316227 445.6751396545265L288.34719516316227 445.6751396545265Q298.4218216782965 445.6751396545265 304.57853788198963 442.44130892127356Q310.73525408568275 439.1763836617393 313.7514231349668 433.79703061507814Q316.76759218425076 428.44877209469826 317.8869951303768 422.29205589100513Q319.0063980765028 416.135339687312 319.0063980765028 410.5383249566819L319.0063980765028 410.5383249566819L319.0063980765028 312.03086569759193L335.7974422683932 312.03086569759193L335.7974422683932 411.19131000858874Q335.7974422683932 424.1888219941631 331.2265469050452 435.81817482336123Q326.62455701541603 447.4786221788406 315.9902290272188 454.7547413286598Q305.35590103902155 462.0308604784789 287.4454539010052 462.0308604784789ZM441.02131920423926 460.22737795416475L370.74768980855004 460.22737795416475L370.74768980855004 312.03086569759193L437.2277869979233 312.03086569759193Q454.70291076800174 312.03086569759193 464.87082086197984 318.06320379615994Q475.06982548223914 324.09554189472794 479.54743726674315 333.17514356886124Q484.02504905124727 342.25474524299455 484.02504905124727 351.20996881200267L484.02504905124727 351.20996881200267Q484.02504905124727 365.51345090139074 477.961616426398 373.25598794542907Q471.92927832783005 380.96743046318613 464.0934577049478 384.54330098553316L464.0934577049478 384.54330098553316Q470.3745520137661 386.56444519381625 476.74892990142814 390.94877339947647Q483.1233077890903 395.30200707885547 487.3832578896254 402.7025043337997Q491.6432079901605 410.0719070624627 491.6432079901605 421.2659365237229L491.6432079901605 421.2659365237229Q491.6432079901605 437.8393190316443 478.98773579368026 449.0333484929045Q466.3322635971999 460.22737795416475 441.02131920423926 460.22737795416475L441.02131920423926 460.22737795416475ZM387.5387340004404 327.9201686273252L387.5387340004404 378.2933012029962L437.2277869979233 378.2933012029962Q445.06360762080544 378.2933012029962 451.9044034026867 375.588077416525Q458.7141046582867 372.91394815633504 462.9740547588218 367.1925553205798Q467.234004859357 361.5022570111059 467.234004859357 352.54703344209764L467.234004859357 352.54703344209764Q467.234004859357 346.26593913327946 464.4354974940419 340.6689244026493Q461.6369901287269 335.0719096720192 455.48027392503377 331.4960391496722Q449.3235577213406 327.9201686273252 439.03126952223744 327.9201686273252L439.03126952223744 327.9201686273252L387.5387340004404 327.9201686273252ZM387.5387340004404 393.49852455454135L387.5387340004404 444.3380750244315L442.82480172855344 444.3380750244315Q458.06111960637986 444.3380750244315 466.456641702325 437.96369713676944Q474.8521637982702 431.5582247228261 474.8521637982702 419.92887189362796L474.8521637982702 419.92887189362796Q474.8521637982702 409.4189220105559 466.76758696513775 401.4587232825486Q458.7141046582867 393.49852455454135 441.02131920423926 393.49852455454135L441.02131920423926 393.49852455454135L387.5387340004404 393.49852455454135Z " fill="#ffe8f5" transform="matrix(0.6308607984701626,0,0,0.6308607984701625,0,55.837405219749826)"/><path d="M661.621106831113 462.0308645991866L661.621106831113 462.0308645991866Q646.5857998572512 462.0308645991866 636.5230308062518 456.2050509380817Q626.4602617552523 450.3792372769767 621.1640675178842 441.3757070734509Q615.867873280516 432.37217686992506 614.8086344330425 422.8390272426624L614.8086344330425 422.8390272426624L631.3445297741584 422.8390272426624Q632.1683822110824 428.3411845892615 635.787448273284 433.8433419358606Q639.3770910341668 439.3454992824598 645.9384872282396 442.9645653446613Q652.5293067236311 446.5542081055442 662.4743825693556 446.5542081055442L662.4743825693556 446.5542081055442Q672.0075321966183 446.5542081055442 677.8333458577233 443.49418476839816Q683.6591595188282 440.4047381299334 686.5132197467433 435.31450700179624Q689.3672799746582 430.2536991749778 690.4265188221319 424.4278855138728Q691.4857576696056 418.6020718527679 691.4857576696056 413.30587761539977L691.4857576696056 413.30587761539977L691.4857576696056 320.09285903772053L707.37434038171 320.09285903772053L707.37434038171 413.92376694309274Q707.37434038171 426.22270689431423 703.0491150878593 437.2270215875125Q698.69446649269 448.2607595820295 688.6316974416904 455.14581209060805Q678.5689283906911 462.0308645991866 661.621106831113 462.0308645991866ZM783.0216480721182 462.0308645991866L783.0216480721182 462.0308645991866Q766.9271022507828 462.0308645991866 755.0400885180233 454.7044625708274Q743.1824980865823 447.4074838437868 736.8270650017405 434.90258078333426Q730.4716319168988 422.3976777228817 730.4716319168988 407.36237074901993L730.4716319168988 407.36237074901993Q730.4716319168988 392.1211006659272 736.8270650017405 379.7044675094308Q743.1824980865823 367.31725765425307 755.0400885180233 360.02027892721253Q766.9271022507828 352.6938768988533 783.0216480721182 352.6938768988533L783.0216480721182 352.6938768988533Q799.3221570026845 352.6938768988533 811.0914775301693 360.02027892721253Q822.8313747563353 367.31725765425307 829.1868078411771 379.7044675094308Q835.5422409260188 392.1211006659272 835.5422409260188 407.36237074901993L835.5422409260188 407.36237074901993Q835.5422409260188 422.3976777228817 829.1868078411771 434.90258078333426Q822.8313747563353 447.4074838437868 811.0914775301693 454.7044625708274Q799.3221570026845 462.0308645991866 783.0216480721182 462.0308645991866ZM783.0216480721182 447.6134469530178L783.0216480721182 447.6134469530178Q794.8792385035591 447.6134469530178 803.0294929688422 442.11128960641867Q811.1797474341255 436.60913225981955 815.4167028240199 427.37021564574405Q819.6536582139145 418.16072233298723 819.6536582139145 407.36237074901993L819.6536582139145 407.36237074901993Q819.6536582139145 396.3580560558217 815.4167028240199 387.236832647021Q811.1797474341255 378.1156092382204 803.0294929688422 372.61345189162125Q794.8792385035591 367.11129454502213 783.0216480721182 367.11129454502213L783.0216480721182 367.11129454502213Q771.3700207499082 367.11129454502213 763.1020730793502 372.61345189162125Q754.8341254087923 378.1156092382204 750.5971700188977 387.236832647021Q746.3602146290032 396.3580560558217 746.3602146290032 407.36237074901993L746.3602146290032 407.36237074901993Q746.3602146290032 418.16072233298723 750.5971700188977 427.37021564574405Q754.8341254087923 436.60913225981955 763.1020730793502 442.11128960641867Q771.3700207499082 447.6134469530178 783.0216480721182 447.6134469530178ZM872.4096374783649 460.3243131227013L856.5210547662605 460.3243131227013L856.5210547662605 312.0308744763935L872.4096374783649 312.0308744763935L872.4096374783649 406.950444530558L923.45906526633 354.4004283753386L945.7030810632762 354.4004283753386L903.1275640551 396.122669645272L948.880797605697 460.3243131227013L929.4025721327098 460.3243131227013L892.3292124711328 407.15640763978894L872.4096374783649 426.8405962220072L872.4096374783649 460.3243131227013ZM1004.6085303033373 462.0308645991866L1004.6085303033373 462.0308645991866Q988.5139844820019 462.0308645991866 976.4210076400113 454.7044625708274Q964.3574540993394 447.4074838437868 957.6783646999919 434.90258078333426Q950.9992753006443 422.3976777228817 950.9992753006443 407.36237074901993L950.9992753006443 407.36237074901993Q950.9992753006443 392.1211006659272 957.3547083854861 379.7044675094308Q963.7101414703278 367.31725765425307 975.5971552030874 360.02027892721253Q987.4547456345283 352.6938768988533 1003.5492914558637 352.6938768988533L1003.5492914558637 352.6938768988533Q1019.84980038643 352.6938768988533 1031.6191209139147 360.02027892721253Q1043.3884414413997 367.31725765425307 1049.7438745262414 379.7044675094308Q1056.099307611083 392.1211006659272 1056.099307611083 407.36237074901993L1056.099307611083 407.36237074901993L1056.099307611083 413.7178038338617L967.3292075325294 413.7178038338617Q968.594409489234 423.0449903518934 973.3609843028653 430.78331859871463Q978.1275591164966 438.4922235442171 986.1895436778237 443.05283524861744Q994.222104937832 447.6134469530178 1004.8144934125683 447.6134469530178L1004.8144934125683 447.6134469530178Q1016.0541945163162 447.6134469530178 1023.6748295578626 442.64090903015546Q1031.2954645994091 437.6683711072932 1035.5324199893034 429.8123496551971L1035.5324199893034 429.8123496551971L1052.921591068662 429.8123496551971Q1047.3900104207441 444.02380419213495 1035.4441500853472 453.02733439566083Q1023.4688664486316 462.0308645991866 1004.6085303033373 462.0308645991866ZM967.5351706417604 398.88845996923095L967.5351706417604 398.88845996923095L1039.563412269967 398.88845996923095Q1037.4449345750197 385.3243180613048 1028.1177480569881 376.2325179538228Q1018.7905615389565 367.11129454502213 1003.5492914558637 367.11129454502213L1003.5492914558637 367.11129454502213Q988.3080213727709 367.11129454502213 979.0691047586953 376.2325179538228Q969.8596114459386 385.3243180613048 967.5351706417604 398.88845996923095ZM1145.4872970173296 460.3243131227013L1078.9612127357223 460.3243131227013L1078.9612127357223 320.09285903772053L1141.897654256447 320.09285903772053Q1158.4041262962442 320.09285903772053 1168.0549691287817 325.80097949355064Q1177.6763886600006 331.50909994938075 1181.913344049895 340.1007039344446Q1186.1502994397897 348.6923079195085 1186.1502994397897 357.1662186992975L1186.1502994397897 357.1662186992975Q1186.1502994397897 370.700937305905 1180.4421789839594 378.02733933426424Q1174.7340585281295 385.3243180613048 1167.319386595814 388.7079977129566L1167.319386595814 388.7079977129566Q1173.233470160875 390.6205122986729 1179.265246931211 394.76919778461126Q1185.3264470028657 398.88845996923095 1189.3280159822104 405.89120568308437Q1193.3590082628739 412.8645280956191 1193.3590082628739 423.45691657035536L1193.3590082628739 423.45691657035536Q1193.3590082628739 439.1395361732288 1181.3837246261583 449.73192464796506Q1169.4378642907614 460.3243131227013 1145.4872970173296 460.3243131227013L1145.4872970173296 460.3243131227013ZM1094.8497954478266 335.1281660115823L1094.8497954478266 382.7939141478955L1141.897654256447 382.7939141478955Q1149.3123261887622 382.7939141478955 1155.7560291775603 380.2340869331676Q1162.2291554676767 377.7036830197584 1166.2601477483404 372.2897955771154Q1170.2617167276853 366.90533143579114 1170.2617167276853 358.4314206560021L1170.2617167276853 358.4314206560021Q1170.2617167276853 352.4879137896223 1167.613619609001 347.19171955225414Q1164.9655224903172 341.8955253148861 1159.1397088292122 338.51184566323417Q1153.3138951681071 335.1281660115823 1143.5747824316136 335.1281660115823L1143.5747824316136 335.1281660115823L1094.8497954478266 335.1281660115823ZM1094.8497954478266 397.18190849274566L1094.8497954478266 445.2890061488396L1147.193848493815 445.2890061488396Q1161.5818428386651 445.2890061488396 1169.5261341947173 439.25722937850367Q1177.4704255507695 433.19602930684897 1177.4704255507695 422.19171461365073L1177.4704255507695 422.19171461365073Q1177.4704255507695 412.24663876792613 1169.849790509223 404.71427363033587Q1162.2291554676767 397.18190849274566 1145.4872970173296 397.18190849274566L1145.4872970173296 397.18190849274566L1094.8497954478266 397.18190849274566ZM1261.7976071301978 462.0308645991866L1261.7976071301978 462.0308645991866Q1245.7030613088623 462.0308645991866 1233.8160475761028 454.7044625708274Q1221.958457144662 447.4074838437868 1215.6030240598202 434.90258078333426Q1209.2475909749783 422.3976777228817 1209.2475909749783 407.36237074901993L1209.2475909749783 407.36237074901993Q1209.2475909749783 392.1211006659272 1215.6030240598202 379.7044675094308Q1221.958457144662 367.31725765425307 1233.8160475761028 360.02027892721253Q1245.7030613088623 352.6938768988533 1261.7976071301978 352.6938768988533L1261.7976071301978 352.6938768988533Q1278.098116060764 352.6938768988533 1289.867436588249 360.02027892721253Q1301.6073338144147 367.31725765425307 1307.9627668992566 379.7044675094308Q1314.3181999840986 392.1211006659272 1314.3181999840986 407.36237074901993L1314.3181999840986 407.36237074901993Q1314.3181999840986 422.3976777228817 1307.9627668992566 434.90258078333426Q1301.6073338144147 447.4074838437868 1289.867436588249 454.7044625708274Q1278.098116060764 462.0308645991866 1261.7976071301978 462.0308645991866ZM1261.7976071301978 447.6134469530178L1261.7976071301978 447.6134469530178Q1273.6551975616385 447.6134469530178 1281.8054520269216 442.11128960641867Q1289.955706492205 436.60913225981955 1294.1926618820994 427.37021564574405Q1298.4296172719942 418.16072233298723 1298.4296172719942 407.36237074901993L1298.4296172719942 407.36237074901993Q1298.4296172719942 396.3580560558217 1294.1926618820994 387.236832647021Q1289.955706492205 378.1156092382204 1281.8054520269216 372.61345189162125Q1273.6551975616385 367.11129454502213 1261.7976071301978 367.11129454502213L1261.7976071301978 367.11129454502213Q1250.1459798079877 367.11129454502213 1241.8780321374297 372.61345189162125Q1233.6100844668717 378.1156092382204 1229.3731290769774 387.236832647021Q1225.1361736870826 396.3580560558217 1225.1361736870826 407.36237074901993L1225.1361736870826 407.36237074901993Q1225.1361736870826 418.16072233298723 1229.3731290769774 427.37021564574405Q1233.6100844668717 436.60913225981955 1241.8780321374297 442.11128960641867Q1250.1459798079877 447.6134469530178 1261.7976071301978 447.6134469530178ZM1362.6312607494233 460.3243131227013L1346.742678037319 460.3243131227013L1346.742678037319 368.3764965017267L1325.1459748693842 368.3764965017267L1325.1459748693842 354.4004283753386L1346.742678037319 354.4004283753386L1346.742678037319 316.47379297551896L1362.6312607494233 316.47379297551896L1362.6312607494233 354.4004283753386L1386.9937542413168 354.4004283753386L1386.9937542413168 368.3764965017267L1362.6312607494233 368.3764965017267L1362.6312607494233 460.3243131227013Z " fill="#8000ff" transform="matrix(0.6308607984701626,0,0,0.6308607984701625,0,55.837405219749826)"/></g></svg>