<svg xmlns="http://www.w3.org/2000/svg" version="1.1" xmlns:xlink="http://www.w3.org/1999/xlink" xmlns:svgjs="http://svgjs.dev/svgjs" width="100%" height="100%" viewBox="0 0 1000 600"><rect width="1000" height="600" x="0" y="0" fill="#234e70"/><g><rect width="333.3333333333333" height="333.3333333333333" y="356.48707227669655" fill="#fbf8be" transform="matrix(0.37395498480351386,0,0,0.3739549848035139,0,104.36405344808831)" x="334.26483154296875"/><path d="M501.1339523363648 536.9515072236309L475.31376953030485 536.9515072236309L475.31376953030485 548.5378859978822L538.6028062756774 548.5378859978822L538.6028062756774 536.9515072236309L512.8449158286187 536.9515072236309L512.8449158286187 469.61346714317057L538.6028062756774 469.61346714317057L538.6028062756774 457.99594218941866L475.31376953030485 457.99594218941866L475.31376953030485 469.61346714317057L501.1339523363648 469.61346714317057L501.1339523363648 536.9515072236309ZM484.06584596999465 448.1537494672052L517.7971583692262 448.1537494672052Q528.854052091966 448.1537494672052 537.8241517881604 451.42409831477613Q546.7942514843551 454.72559334184774 553.0857797434915 460.3941980109707Q559.4084541821286 466.09394885959426 562.8033877477021 473.6936166577591Q566.1983213132758 481.32443063542456 566.1983213132758 489.8584838186096L566.1983213132758 489.8584838186096L566.1983213132758 556.4490155910537Q566.1983213132758 564.9830687742389 562.8033877477021 572.5827365724037Q559.4084541821286 580.1824043705685 553.0857797434915 585.8821552191921Q546.7942514843551 591.5819060678157 537.8241517881604 594.8834010948874Q528.854052091966 598.1537499424583 517.7971583692262 598.1537499424583L517.7971583692262 598.1537499424583L484.06584596999465 598.1537499424583Q473.00895224725485 598.1537499424583 464.00770637155966 594.8834010948874Q455.0376066753651 591.5819060678157 448.74607841622867 585.8821552191921Q442.4545501570922 580.1824043705685 439.05961659151865 572.5827365724037Q435.664683025945 564.9830687742389 435.664683025945 556.4490155910537L435.664683025945 556.4490155910537L435.664683025945 489.8584838186096Q435.664683025945 481.32443063542456 439.05961659151865 473.6936166577591Q442.4545501570922 466.09394885959426 448.74607841622867 460.3941980109707Q455.0376066753651 454.72559334184774 464.00770637155966 451.42409831477613Q473.00895224725485 448.1537494672052 484.06584596999465 448.1537494672052L484.06584596999465 448.1537494672052Z " fill="#234e70" transform="matrix(0.37395498480351386,0,0,0.3739549848035139,0,104.36405344808831)"/><path d="M799.3326611555415 448.1537494672052L833.0639735547729 448.1537494672052Q844.1208672775128 448.1537494672052 853.0909669737073 451.42409831477613Q862.0610666699018 454.72559334184774 868.3525949290383 460.3941980109707Q874.6752693676755 466.09394885959426 878.070202933249 473.6936166577591Q881.4651364988226 481.32443063542456 881.4651364988226 489.8584838186096L881.4651364988226 489.8584838186096L881.4651364988226 556.4490155910537Q881.4651364988226 564.9830687742389 878.070202933249 572.5827365724037Q874.6752693676755 580.1824043705685 868.3525949290383 585.8821552191921Q862.0610666699018 591.5819060678157 853.0909669737073 594.8834010948874Q844.1208672775128 598.1537499424583 833.0639735547729 598.1537499424583L833.0639735547729 598.1537499424583L799.3326611555415 598.1537499424583Q788.2757674328017 598.1537499424583 779.2745215571065 594.8834010948874Q770.304421860912 591.5819060678157 764.0128936017755 585.8821552191921Q757.721365342639 580.1824043705685 754.3264317770654 572.5827365724037Q750.9314982114918 564.9830687742389 750.9314982114918 556.4490155910537L750.9314982114918 556.4490155910537L750.9314982114918 489.8584838186096Q750.9314982114918 481.32443063542456 754.3264317770654 473.6936166577591Q757.721365342639 466.09394885959426 764.0128936017755 460.3941980109707Q770.304421860912 454.72559334184774 779.2745215571065 451.42409831477613Q788.2757674328017 448.1537494672052 799.3326611555415 448.1537494672052L799.3326611555415 448.1537494672052ZM855.8318307697667 530.9091484004998L855.8318307697667 475.74926450480365L854.3056679742336 466.52999537260376L847.3912161250837 459.5221049849518L836.1162991458392 457.99594218941866L787.2790896887801 457.99594218941866L787.2790896887801 548.5378859978822L836.1162991458392 548.5378859978822L847.3912161250837 547.2297464588539L854.3056679742336 540.3464407892045L855.8318307697667 530.9091484004998ZM844.2143058160148 529.7255935794742L842.6881430204817 535.8613909411073L835.462229376325 536.9515072236309L798.6785913860273 536.9515072236309L798.6785913860273 469.61346714317057L835.462229376325 469.61346714317057L843.1241895334912 470.7970219641963L844.2143058160148 477.27542730033673L844.2143058160148 529.7255935794742ZM928.9630602373527 448.1537494672052L962.6943726365841 448.1537494672052Q973.7512663593241 448.1537494672052 982.7525122350193 451.42409831477613Q991.7226119312138 454.72559334184774 998.0141401903502 460.3941980109707Q1004.3056684494866 466.09394885959426 1007.7006020150602 473.6936166577591Q1011.0955355806339 481.32443063542456 1011.0955355806339 489.8584838186096L1011.0955355806339 489.8584838186096L1011.0955355806339 556.4490155910537Q1011.0955355806339 564.9830687742389 1007.7006020150602 572.5827365724037Q1004.3056684494866 580.1824043705685 998.0141401903502 585.8821552191921Q991.7226119312138 591.5819060678157 982.7525122350193 594.8834010948874Q973.7512663593241 598.1537499424583 962.6943726365841 598.1537499424583L962.6943726365841 598.1537499424583L928.9630602373527 598.1537499424583Q917.906166514613 598.1537499424583 908.9360668184183 594.8834010948874Q899.9659671222239 591.5819060678157 893.6744388630874 585.8821552191921Q887.3517644244503 580.1824043705685 883.9568308588766 572.5827365724037Q880.561897293303 564.9830687742389 880.561897293303 556.4490155910537L880.561897293303 556.4490155910537L880.561897293303 489.8584838186096Q880.561897293303 481.32443063542456 883.9568308588766 473.6936166577591Q887.3517644244503 466.09394885959426 893.6744388630874 460.3941980109707Q899.9659671222239 454.72559334184774 908.9360668184183 451.42409831477613Q917.906166514613 448.1537494672052 928.9630602373527 448.1537494672052L928.9630602373527 448.1537494672052ZM977.0527613863956 503.0956101063967L977.0527613863956 475.50009506879826L975.4020138728599 466.311972116099L968.4875620237099 459.30408172844704L957.4306683009701 457.99594218941866L933.6972795214554 457.99594218941866L922.7338243372176 459.30408172844704L915.8193724880676 466.311972116099L914.1997711540325 475.50009506879826L914.1997711540325 527.5142148349263L915.8193724880676 536.7334839671262L922.7338243372176 543.6167896367755L933.6972795214554 545.0495138938065L961.2616483795532 545.0495138938065L974.0938743338315 543.3987663802707L971.353010537772 531.5632181700141L961.0436251230484 533.3385504015525L934.4447878294716 533.3385504015525L927.4368974418196 532.248434119029L925.9107346462865 525.6765902443865L925.9107346462865 503.0956101063967L977.0527613863956 503.0956101063967ZM965.3417978941417 491.6026698706475L925.9107346462865 491.6026698706475L925.9107346462865 476.83938078732734L926.7828276723054 470.57899870769154L934.4447878294716 469.3954438866659L956.7765985314559 469.3954438866659L964.2205354321173 470.57899870769154L965.3417978941417 477.05740404383204L965.3417978941417 491.6026698706475ZM1094.9721969759528 547.2297464588539L1105.811067442188 548.4444474593802L1105.811067442188 523.4652114998385L1105.811067442188 475.50009506879826L1105.811067442188 466.311972116099L1098.3671305415264 459.30408172844704L1087.4036753572886 457.99594218941866L1062.4555855772478 457.99594218941866L1049.65450580247 459.5221049849518L1052.3642234190288 471.4510917337105L1062.6736088337525 469.3954438866659L1087.092213562282 469.3954438866659L1093.6640574369246 470.7970219641963L1095.1902202324577 476.6213575308226L1095.1902202324577 502.1300785418758L1087.4036753572886 500.8219390028474L1062.4555855772478 500.8219390028474L1051.49213039301 502.44154033688255L1044.484240005358 509.3559921860325L1042.9580772098248 518.326091882227L1042.9580772098248 531.1271716570046L1044.484240005358 540.3464407892045L1051.49213039301 547.2297464588539L1062.4555855772478 548.5378859978822L1086.4381437927677 548.5378859978822L1094.9721969759528 547.2297464588539ZM1095.1902202324577 529.9436168359789L1095.1902202324577 535.8613909411073L1086.6561670492724 536.9515072236309L1063.1096553467619 536.9515072236309L1056.2263496771127 535.8613909411073L1054.6690407020787 529.2895470664648L1054.6690407020787 519.8522546777601L1055.5411337280977 513.623018777625L1063.1096553467619 512.5329024951013L1086.8741903057773 512.5329024951013L1095.1902202324577 513.4049955211203L1095.1902202324577 529.9436168359789ZM1058.6246054986646 448.1537494672052L1092.3559178978962 448.1537494672052Q1103.412811620636 448.1537494672052 1112.3829113168304 451.42409831477613Q1121.353011013025 454.72559334184774 1127.6445392721614 460.3941980109707Q1133.9672137107987 466.09394885959426 1137.362147276372 473.6936166577591Q1140.757080841946 481.32443063542456 1140.757080841946 489.8584838186096L1140.757080841946 489.8584838186096L1140.757080841946 556.4490155910537Q1140.757080841946 564.9830687742389 1137.362147276372 572.5827365724037Q1133.9672137107987 580.1824043705685 1127.6445392721614 585.8821552191921Q1121.353011013025 591.5819060678157 1112.3829113168304 594.8834010948874Q1103.412811620636 598.1537499424583 1092.3559178978962 598.1537499424583L1092.3559178978962 598.1537499424583L1058.6246054986646 598.1537499424583Q1047.5677117759249 598.1537499424583 1038.5664659002296 594.8834010948874Q1029.5963662040351 591.5819060678157 1023.3048379448987 585.8821552191921Q1017.0133096857624 580.1824043705685 1013.6183761201886 572.5827365724037Q1010.2234425546151 564.9830687742389 1010.2234425546151 556.4490155910537L1010.2234425546151 556.4490155910537L1010.2234425546151 489.8584838186096Q1010.2234425546151 481.32443063542456 1013.6183761201886 473.6936166577591Q1017.0133096857624 466.09394885959426 1023.3048379448987 460.3941980109707Q1029.5963662040351 454.72559334184774 1038.5664659002296 451.42409831477613Q1047.5677117759249 448.1537494672052 1058.6246054986646 448.1537494672052L1058.6246054986646 448.1537494672052ZM1222.8584100057262 471.015045220701L1229.990885111381 469.3954438866659L1258.4584931749982 469.3954438866659L1269.7334101542428 471.23306847720573L1271.9136427192902 459.5221049849518L1259.2060014830147 457.99594218941866L1229.7728618548763 457.99594218941866L1218.5913834141338 459.7401282414565L1211.5834930264818 466.74801862910846L1210.0573302309488 475.9672877613084L1210.0573302309488 530.9091484004998L1211.5834930264818 540.3464407892045L1218.8094066706385 547.2297464588539L1229.7728618548763 548.5378859978822L1257.15035363597 548.5378859978822L1268.2072473587098 547.2297464588539L1275.3085762848636 540.3464407892045L1276.834739080397 530.9091484004998L1276.834739080397 502.1300785418758L1245.0967821692086 502.1300785418758L1245.0967821692086 513.8410420341297L1265.2483603061455 513.8410420341297L1265.2483603061455 529.2895470664648Q1264.6877290751336 531.0337331185026 1264.4697058186289 532.5598959140357Q1264.251682562124 534.0860587095688 1263.7221975106124 535.8613909411073L1263.7221975106124 535.8613909411073L1256.4962838664558 536.9515072236309L1229.990885111381 536.9515072236309L1223.2944565187358 535.8613909411073L1221.7682937232025 528.8535005534553L1221.7682937232025 477.05740404383204L1222.8584100057262 471.015045220701ZM1220.5535927226763 448.1537494672052L1254.2849051219077 448.1537494672052Q1265.3417988446477 448.1537494672052 1274.3430447203427 451.42409831477613Q1283.3131444165374 454.72559334184774 1289.604672675674 460.3941980109707Q1295.8962009348102 466.09394885959426 1299.2911345003838 473.6936166577591Q1302.6860680659574 481.32443063542456 1302.6860680659574 489.8584838186096L1302.6860680659574 489.8584838186096L1302.6860680659574 556.4490155910537Q1302.6860680659574 564.9830687742389 1299.2911345003838 572.5827365724037Q1295.8962009348102 580.1824043705685 1289.604672675674 585.8821552191921Q1283.3131444165374 591.5819060678157 1274.3430447203427 594.8834010948874Q1265.3417988446477 598.1537499424583 1254.2849051219077 598.1537499424583L1254.2849051219077 598.1537499424583L1220.5535927226763 598.1537499424583Q1209.4966989999366 598.1537499424583 1200.526599303742 594.8834010948874Q1191.5564996075475 591.5819060678157 1185.264971348411 585.8821552191921Q1178.9734430892745 580.1824043705685 1175.578509523701 572.5827365724037Q1172.1835759581274 564.9830687742389 1172.1835759581274 556.4490155910537L1172.1835759581274 556.4490155910537L1172.1835759581274 489.8584838186096Q1172.1835759581274 481.32443063542456 1175.578509523701 473.6936166577591Q1178.9734430892745 466.09394885959426 1185.264971348411 460.3941980109707Q1191.5564996075475 454.72559334184774 1200.526599303742 451.42409831477613Q1209.4966989999366 448.1537494672052 1220.5535927226763 448.1537494672052L1220.5535927226763 448.1537494672052ZM1350.2151379839884 448.1537494672052L1383.9464503832196 448.1537494672052Q1395.0033441059595 448.1537494672052 1403.9734438021542 451.42409831477613Q1412.9435434983486 454.72559334184774 1419.2662179369856 460.3941980109707Q1425.557746196122 466.09394885959426 1428.952679761696 473.6936166577591Q1432.3476133272693 481.32443063542456 1432.3476133272693 489.8584838186096L1432.3476133272693 489.8584838186096L1432.3476133272693 556.4490155910537Q1432.3476133272693 564.9830687742389 1428.952679761696 572.5827365724037Q1425.557746196122 580.1824043705685 1419.2662179369856 585.8821552191921Q1412.9435434983486 591.5819060678157 1403.9734438021542 594.8834010948874Q1395.0033441059595 598.1537499424583 1383.9464503832196 598.1537499424583L1383.9464503832196 598.1537499424583L1350.2151379839884 598.1537499424583Q1339.1582442612485 598.1537499424583 1330.1881445650538 594.8834010948874Q1321.1868986893587 591.5819060678157 1314.895370430222 585.8821552191921Q1308.603842171086 580.1824043705685 1305.208908605512 572.5827365724037Q1301.8139750399387 564.9830687742389 1301.8139750399387 556.4490155910537L1301.8139750399387 556.4490155910537L1301.8139750399387 489.8584838186096Q1301.8139750399387 481.32443063542456 1305.208908605512 473.6936166577591Q1308.603842171086 466.09394885959426 1314.895370430222 460.3941980109707Q1321.1868986893587 454.72559334184774 1330.1881445650538 451.42409831477613Q1339.1582442612485 448.1537494672052 1350.2151379839884 448.1537494672052L1350.2151379839884 448.1537494672052ZM1398.2736929535304 503.0956101063967L1398.2736929535304 475.50009506879826L1396.6540916194954 466.311972116099L1389.7396397703455 459.30408172844704L1378.6827460476056 457.99594218941866L1354.9182110885902 457.99594218941866L1343.985902083853 459.30408172844704L1337.0714502347032 466.311972116099L1335.4207027211673 475.50009506879826L1335.4207027211673 527.5142148349263L1337.0714502347032 536.7334839671262L1343.985902083853 543.6167896367755L1354.9182110885902 545.0495138938065L1382.5137261261887 545.0495138938065L1395.3148059009663 543.3987663802707L1392.6050882844074 531.5632181700141L1382.295702869684 533.3385504015525L1355.696865576107 533.3385504015525L1348.688975188455 532.248434119029L1347.162812392922 525.6765902443865L1347.162812392922 503.0956101063967L1398.2736929535304 503.0956101063967ZM1386.5627294612764 491.6026698706475L1347.162812392922 491.6026698706475L1347.162812392922 476.83938078732734L1348.034905418941 470.57899870769154L1355.696865576107 469.3954438866659L1378.0286762780913 469.3954438866659L1385.472613178753 470.57899870769154L1386.5627294612764 477.05740404383204L1386.5627294612764 491.6026698706475ZM1533.9464508584729 548.5378859978822L1533.9464508584729 475.50009506879826L1532.4202880629396 466.311972116099L1525.4123976752876 459.30408172844704L1514.2309192345451 457.99594218941866L1486.8534274534513 457.99594218941866L1467.1690420090245 460.7368059854781L1467.1690420090245 548.5378859978822L1478.755420783276 548.5378859978822L1478.755420783276 470.7970219641963L1487.3206201459616 469.3954438866659L1513.576849465031 469.3954438866659L1521.145371083695 470.57899870769154L1522.2354873662189 477.05740404383204L1522.2354873662189 548.5378859978822L1533.9464508584729 548.5378859978822ZM1479.8455370657994 448.1537494672052L1513.576849465031 448.1537494672052Q1524.6337431877707 448.1537494672052 1533.634989063466 451.42409831477613Q1542.6050887596605 454.72559334184774 1548.8966170187969 460.3941980109707Q1555.1881452779335 466.09394885959426 1558.583078843507 473.6936166577591Q1561.9780124090807 481.32443063542456 1561.9780124090807 489.8584838186096L1561.9780124090807 489.8584838186096L1561.9780124090807 556.4490155910537Q1561.9780124090807 564.9830687742389 1558.583078843507 572.5827365724037Q1555.1881452779335 580.1824043705685 1548.8966170187969 585.8821552191921Q1542.6050887596605 591.5819060678157 1533.634989063466 594.8834010948874Q1524.6337431877707 598.1537499424583 1513.576849465031 598.1537499424583L1513.576849465031 598.1537499424583L1479.8455370657994 598.1537499424583Q1468.78864334306 598.1537499424583 1459.8185436468652 594.8834010948874Q1450.8484439506706 591.5819060678157 1444.5569156915342 585.8821552191921Q1438.2653874323978 580.1824043705685 1434.8704538668242 572.5827365724037Q1431.4755203012505 564.9830687742389 1431.4755203012505 556.4490155910537L1431.4755203012505 556.4490155910537L1431.4755203012505 489.8584838186096Q1431.4755203012505 481.32443063542456 1434.8704538668242 473.6936166577591Q1438.2653874323978 466.09394885959426 1444.5569156915342 460.3941980109707Q1450.8484439506706 454.72559334184774 1459.8185436468652 451.42409831477613Q1468.78864334306 448.1537494672052 1479.8455370657994 448.1537494672052L1479.8455370657994 448.1537494672052ZM1609.5070823271112 448.1537494672052L1643.238394726343 448.1537494672052Q1654.2952884490826 448.1537494672052 1663.265388145277 451.42409831477613Q1672.2354878414717 454.72559334184774 1678.5581622801087 460.3941980109707Q1684.8496905392453 466.09394885959426 1688.244624104819 473.6936166577591Q1691.6395576703926 481.32443063542456 1691.6395576703926 489.8584838186096L1691.6395576703926 489.8584838186096L1691.6395576703926 556.4490155910537Q1691.6395576703926 564.9830687742389 1688.244624104819 572.5827365724037Q1684.8496905392453 580.1824043705685 1678.5581622801087 585.8821552191921Q1672.2354878414717 591.5819060678157 1663.265388145277 594.8834010948874Q1654.2952884490826 598.1537499424583 1643.238394726343 598.1537499424583L1643.238394726343 598.1537499424583L1609.5070823271112 598.1537499424583Q1598.4501886043718 598.1537499424583 1589.480088908177 594.8834010948874Q1580.4788430324818 591.5819060678157 1574.1873147733454 585.8821552191921Q1567.895786514209 580.1824043705685 1564.5008529486354 572.5827365724037Q1561.1059193830617 564.9830687742389 1561.1059193830617 556.4490155910537L1561.1059193830617 556.4490155910537L1561.1059193830617 489.8584838186096Q1561.1059193830617 481.32443063542456 1564.5008529486354 473.6936166577591Q1567.895786514209 466.09394885959426 1574.1873147733454 460.3941980109707Q1580.4788430324818 454.72559334184774 1589.480088908177 451.42409831477613Q1598.4501886043718 448.1537494672052 1609.5070823271112 448.1537494672052L1609.5070823271112 448.1537494672052ZM1657.5656372966537 503.0956101063967L1657.5656372966537 475.50009506879826L1655.9460359626185 466.311972116099L1649.0315841134684 459.30408172844704L1637.974690390729 457.99594218941866L1614.2101554317132 457.99594218941866L1603.2778464269763 459.30408172844704L1596.3633945778265 466.311972116099L1594.7126470642904 475.50009506879826L1594.7126470642904 527.5142148349263L1596.3633945778265 536.7334839671262L1603.2778464269763 543.6167896367755L1614.2101554317132 545.0495138938065L1641.8056704693117 545.0495138938065L1654.6067502440894 543.3987663802707L1651.8970326275307 531.5632181700141L1641.587647212807 533.3385504015525L1614.9888099192303 533.3385504015525L1607.9809195315781 532.248434119029L1606.4547567360453 525.6765902443865L1606.4547567360453 503.0956101063967L1657.5656372966537 503.0956101063967ZM1645.8546738043997 491.6026698706475L1606.4547567360453 491.6026698706475L1606.4547567360453 476.83938078732734L1607.3268497620643 470.57899870769154L1614.9888099192303 469.3954438866659L1637.3206206212144 469.3954438866659L1644.7645575218758 470.57899870769154L1645.8546738043997 477.05740404383204L1645.8546738043997 491.6026698706475ZM1739.1374814089227 448.1537494672052L1772.8687938081544 448.1537494672052Q1783.9256875308938 448.1537494672052 1792.9269334065893 451.42409831477613Q1801.8970331027836 454.72559334184774 1808.1885613619202 460.3941980109707Q1814.4800896210563 466.09394885959426 1817.8750231866302 473.6936166577591Q1821.2699567522036 481.32443063542456 1821.2699567522036 489.8584838186096L1821.2699567522036 489.8584838186096L1821.2699567522036 556.4490155910537Q1821.2699567522036 564.9830687742389 1817.8750231866302 572.5827365724037Q1814.4800896210563 580.1824043705685 1808.1885613619202 585.8821552191921Q1801.8970331027836 591.5819060678157 1792.9269334065893 594.8834010948874Q1783.9256875308938 598.1537499424583 1772.8687938081544 598.1537499424583L1772.8687938081544 598.1537499424583L1739.1374814089227 598.1537499424583Q1728.0805876861828 598.1537499424583 1719.110487989988 594.8834010948874Q1710.1403882937939 591.5819060678157 1703.8488600346573 585.8821552191921Q1697.5573317755209 580.1824043705685 1694.1623982099472 572.5827365724037Q1690.7674646443738 564.9830687742389 1690.7674646443738 556.4490155910537L1690.7674646443738 556.4490155910537L1690.7674646443738 489.8584838186096Q1690.7674646443738 481.32443063542456 1694.1623982099472 473.6936166577591Q1697.5573317755209 466.09394885959426 1703.8488600346573 460.3941980109707Q1710.1403882937939 454.72559334184774 1719.110487989988 451.42409831477613Q1728.0805876861828 448.1537494672052 1739.1374814089227 448.1537494672052L1739.1374814089227 448.1537494672052ZM1776.8243586047402 515.5852280861675L1778.4751061182756 521.503002191296L1778.4751061182756 548.5378859978822L1790.061484892527 548.5378859978822L1790.061484892527 520.2883011907695L1786.2305048139438 510.2280852120514L1773.7408868341731 505.7430353639541L1785.7944583009344 499.9186997973278L1789.1893918665082 490.07650707511436L1789.1893918665082 477.9294970698509L1787.8812523274796 468.7413741171517L1780.655338683323 459.5221049849518L1769.6918834990852 457.99594218941866L1728.8592421736996 457.99594218941866L1728.8592421736996 548.5378859978822L1740.5702056659538 548.5378859978822L1740.5702056659538 512.0968559820919L1769.037813729571 512.0968559820919L1776.8243586047402 515.5852280861675ZM1740.5702056659538 469.61346714317057L1769.037813729571 469.61346714317057L1776.8243586047402 473.0084007087442L1777.571866912756 479.36222132688204L1777.571866912756 490.9486001011333L1775.952265578721 496.99095892426436L1769.037813729571 500.38589248983794L1740.5702056659538 500.38589248983794L1740.5702056659538 469.61346714317057ZM1905.1466181475225 547.2297464588539L1915.9854886137578 548.4444474593802L1915.9854886137578 523.4652114998385L1915.9854886137578 475.50009506879826L1915.9854886137578 466.311972116099L1908.5415517130964 459.30408172844704L1897.6092427083595 457.99594218941866L1872.6300067488178 457.99594218941866L1859.8289269740399 459.5221049849518L1862.5697907700992 471.4510917337105L1872.8480300053225 469.3954438866659L1897.2666347338518 469.3954438866659L1903.8384786084944 470.7970219641963L1905.3646414040277 476.6213575308226L1905.3646414040277 502.1300785418758L1897.6092427083595 500.8219390028474L1872.6300067488178 500.8219390028474L1861.66655156458 502.44154033688255L1854.658661176928 509.3559921860325L1853.1324983813947 518.326091882227L1853.1324983813947 531.1271716570046L1854.658661176928 540.3464407892045L1861.66655156458 547.2297464588539L1872.6300067488178 548.5378859978822L1896.6125649643377 548.5378859978822L1905.1466181475225 547.2297464588539ZM1905.3646414040277 529.9436168359789L1905.3646414040277 535.8613909411073L1896.8305882208424 536.9515072236309L1873.2840765183319 536.9515072236309L1866.4007708486824 535.8613909411073L1864.8434618736487 529.2895470664648L1864.8434618736487 519.8522546777601L1865.7467010791684 513.623018777625L1873.2840765183319 512.5329024951013L1897.048611477347 512.5329024951013L1905.3646414040277 513.4049955211203L1905.3646414040277 529.9436168359789ZM1868.7990266702345 448.1537494672052L1902.5303390694662 448.1537494672052Q1913.5872327922057 448.1537494672052 1922.5573324884003 451.42409831477613Q1931.527432184595 454.72559334184774 1937.850106623232 460.3941980109707Q1944.1416348823682 466.09394885959426 1947.536568447942 473.6936166577591Q1950.9315020135155 481.32443063542456 1950.9315020135155 489.8584838186096L1950.9315020135155 489.8584838186096L1950.9315020135155 556.4490155910537Q1950.9315020135155 564.9830687742389 1947.536568447942 572.5827365724037Q1944.1416348823682 580.1824043705685 1937.850106623232 585.8821552191921Q1931.527432184595 591.5819060678157 1922.5573324884003 594.8834010948874Q1913.5872327922057 598.1537499424583 1902.5303390694662 598.1537499424583L1902.5303390694662 598.1537499424583L1868.7990266702345 598.1537499424583Q1857.742132947495 598.1537499424583 1848.7720332513 594.8834010948874Q1839.7707873756049 591.5819060678157 1833.4792591164683 585.8821552191921Q1827.187730857332 580.1824043705685 1823.7927972917587 572.5827365724037Q1820.3978637261848 564.9830687742389 1820.3978637261848 556.4490155910537L1820.3978637261848 556.4490155910537L1820.3978637261848 489.8584838186096Q1820.3978637261848 481.32443063542456 1823.7927972917587 473.6936166577591Q1827.187730857332 466.09394885959426 1833.4792591164683 460.3941980109707Q1839.7707873756049 454.72559334184774 1848.7720332513 451.42409831477613Q1857.742132947495 448.1537494672052 1868.7990266702345 448.1537494672052L1868.7990266702345 448.1537494672052ZM2052.9663860577284 469.61346714317057L2052.9663860577284 457.99594218941866L1989.677349312356 457.99594218941866L1989.677349312356 469.61346714317057L2015.5286782979165 469.61346714317057L2015.5286782979165 548.5378859978822L2027.2396417901705 548.5378859978822L2027.2396417901705 469.61346714317057L2052.9663860577284 469.61346714317057ZM1998.429425752046 448.1537494672052L2032.1607381512772 448.1537494672052Q2043.2176318740171 448.1537494672052 2052.218877749712 451.42409831477613Q2061.188977445907 454.72559334184774 2067.4805057050435 460.3941980109707Q2073.7720339641796 466.09394885959426 2077.1669675297535 473.6936166577591Q2080.561901095327 481.32443063542456 2080.561901095327 489.8584838186096L2080.561901095327 489.8584838186096L2080.561901095327 556.4490155910537Q2080.561901095327 564.9830687742389 2077.1669675297535 572.5827365724037Q2073.7720339641796 580.1824043705685 2067.4805057050435 585.8821552191921Q2061.188977445907 591.5819060678157 2052.218877749712 594.8834010948874Q2043.2176318740171 598.1537499424583 2032.1607381512772 598.1537499424583L2032.1607381512772 598.1537499424583L1998.429425752046 598.1537499424583Q1987.372532029306 598.1537499424583 1978.4024323331114 594.8834010948874Q1969.4323326369167 591.5819060678157 1963.1408043777806 585.8821552191921Q1956.8492761186444 580.1824043705685 1953.4543425530705 572.5827365724037Q1950.0594089874967 564.9830687742389 1950.0594089874967 556.4490155910537L1950.0594089874967 556.4490155910537L1950.0594089874967 489.8584838186096Q1950.0594089874967 481.32443063542456 1953.4543425530705 473.6936166577591Q1956.8492761186444 466.09394885959426 1963.1408043777806 460.3941980109707Q1969.4323326369167 454.72559334184774 1978.4024323331114 451.42409831477613Q1987.372532029306 448.1537494672052 1998.429425752046 448.1537494672052L1998.429425752046 448.1537494672052ZM2128.090971013358 448.1537494672052L2161.822283412589 448.1537494672052Q2172.879177135329 448.1537494672052 2181.8492768315236 451.42409831477613Q2190.8193765277183 454.72559334184774 2197.142050966355 460.3941980109707Q2203.4335792254915 466.09394885959426 2206.8285127910654 473.6936166577591Q2210.2234463566388 481.32443063542456 2210.2234463566388 489.8584838186096L2210.2234463566388 489.8584838186096L2210.2234463566388 556.4490155910537Q2210.2234463566388 564.9830687742389 2206.8285127910654 572.5827365724037Q2203.4335792254915 580.1824043705685 2197.142050966355 585.8821552191921Q2190.8193765277183 591.5819060678157 2181.8492768315236 594.8834010948874Q2172.879177135329 598.1537499424583 2161.822283412589 598.1537499424583L2161.822283412589 598.1537499424583L2128.090971013358 598.1537499424583Q2117.034077290618 598.1537499424583 2108.0639775944232 594.8834010948874Q2099.062731718728 591.5819060678157 2092.7712034595916 585.8821552191921Q2086.4796752004554 580.1824043705685 2083.0847416348815 572.5827365724037Q2079.689808069308 564.9830687742389 2079.689808069308 556.4490155910537L2079.689808069308 556.4490155910537L2079.689808069308 489.8584838186096Q2079.689808069308 481.32443063542456 2083.0847416348815 473.6936166577591Q2086.4796752004554 466.09394885959426 2092.7712034595916 460.3941980109707Q2099.062731718728 454.72559334184774 2108.0639775944232 451.42409831477613Q2117.034077290618 448.1537494672052 2128.090971013358 448.1537494672052L2128.090971013358 448.1537494672052ZM2184.372117371078 530.9091484004998L2184.372117371078 475.74926450480365L2182.8459545755454 466.52999537260376L2175.931502726395 459.5221049849518L2164.6565857471505 457.99594218941866L2135.316884657514 457.99594218941866L2124.135406216772 459.5221049849518L2117.12751582912 466.52999537260376L2115.8193762900914 475.74926450480365L2115.8193762900914 530.9091484004998L2117.12751582912 540.3464407892045L2124.3534294732767 547.2297464588539L2135.316884657514 548.5378859978822L2164.6565857471505 548.5378859978822L2175.931502726395 547.2297464588539L2182.8459545755454 540.3464407892045L2184.372117371078 530.9091484004998ZM2172.7545924173264 529.7255935794742L2171.228429621793 535.8613909411073L2164.0025159776364 536.9515072236309L2135.9709544270286 536.9515072236309L2128.8696255008745 535.8613909411073L2127.2188779873386 529.2895470664648L2127.2188779873386 476.83938078732734L2128.3089942698625 470.7970219641963L2135.9709544270286 469.61346714317057L2164.0025159776364 469.61346714317057L2171.6644761348025 470.7970219641963L2172.7545924173264 477.27542730033673L2172.7545924173264 529.7255935794742ZM2257.721370095169 448.1537494672052L2291.4526824944005 448.1537494672052Q2302.50957621714 448.1537494672052 2311.5108220928355 451.42409831477613Q2320.48092178903 454.72559334184774 2326.7724500481663 460.3941980109707Q2333.063978307303 466.09394885959426 2336.4589118728763 473.6936166577591Q2339.85384543845 481.32443063542456 2339.85384543845 489.8584838186096L2339.85384543845 489.8584838186096L2339.85384543845 556.4490155910537Q2339.85384543845 564.9830687742389 2336.4589118728763 572.5827365724037Q2333.063978307303 580.1824043705685 2326.7724500481663 585.8821552191921Q2320.48092178903 591.5819060678157 2311.5108220928355 594.8834010948874Q2302.50957621714 598.1537499424583 2291.4526824944005 598.1537499424583L2291.4526824944005 598.1537499424583L2257.721370095169 598.1537499424583Q2246.664476372429 598.1537499424583 2237.6943766762347 594.8834010948874Q2228.72427698004 591.5819060678157 2222.4327487209034 585.8821552191921Q2216.1412204617673 580.1824043705685 2212.7462868961934 572.5827365724037Q2209.35135333062 564.9830687742389 2209.35135333062 556.4490155910537L2209.35135333062 556.4490155910537L2209.35135333062 489.8584838186096Q2209.35135333062 481.32443063542456 2212.7462868961934 473.6936166577591Q2216.1412204617673 466.09394885959426 2222.4327487209034 460.3941980109707Q2228.72427698004 454.72559334184774 2237.6943766762347 451.42409831477613Q2246.664476372429 448.1537494672052 2257.721370095169 448.1537494672052L2257.721370095169 448.1537494672052ZM2295.4082472909863 515.5852280861675L2297.058994804522 521.503002191296L2297.058994804522 548.5378859978822L2308.645373578773 548.5378859978822L2308.645373578773 520.2883011907695L2304.8143935001904 510.2280852120514L2292.3247755204193 505.7430353639541L2304.378346987181 499.9186997973278L2307.7732805527544 490.07650707511436L2307.7732805527544 477.9294970698509L2306.465141013726 468.7413741171517L2299.2392273695696 459.5221049849518L2288.2757721853313 457.99594218941866L2247.443130859946 457.99594218941866L2247.443130859946 548.5378859978822L2259.1540943522 548.5378859978822L2259.1540943522 512.0968559820919L2287.6217024158173 512.0968559820919L2295.4082472909863 515.5852280861675ZM2259.1540943522 469.61346714317057L2287.6217024158173 469.61346714317057L2295.4082472909863 473.0084007087442L2296.1557555990025 479.36222132688204L2296.1557555990025 490.9486001011333L2294.536154264967 496.99095892426436L2287.6217024158173 500.38589248983794L2259.1540943522 500.38589248983794L2259.1540943522 469.61346714317057Z " fill="#fbf8be" transform="matrix(0.37395498480351386,0,0,0.3739549848035139,0,104.36405344808831)"/></g></svg>